<svg width="153" height="36" viewBox="0 0 153 36" fill="none" xmlns="http://www.w3.org/2000/svg">
<g clip-path="url(#clip0)">
<path d="M53.5422 23.9703V20.7711C53.5422 20.3406 53.4314 20.0652 53.2097 19.9451C52.9668 19.8249 52.5762 19.7598 52.0378 19.7498H46.2101V24.9916L52.4337 25.0217C53.1727 25.0217 53.5422 24.6712 53.5422 23.9703ZM53.273 14.8084V12.1649C53.273 11.464 52.9088 11.1136 52.1803 11.1136H46.2101V15.8447L52.1803 15.8147C52.5921 15.8147 52.8824 15.7546 53.0513 15.6344C53.1991 15.5143 53.273 15.2389 53.273 14.8084ZM57.913 11.3238V14.4629C57.913 15.9148 57.232 17.0212 55.8701 17.7822C57.401 18.5032 58.1664 19.6146 58.1664 21.1166V24.7363C58.1664 26.028 57.7441 27.0743 56.8995 27.8754C56.0549 28.6764 54.9569 29.0769 53.6056 29.0769H41.5385V6.9231L53.3363 6.99819C54.6983 6.99819 55.8015 7.39871 56.6461 8.19976C57.4907 9.0008 57.913 10.0422 57.913 11.3238ZM69.7918 6.9231H74.4635V24.8865H84.2502V29.0769H69.7918V6.9231ZM94.9888 29.0769V6.9231H99.6605V29.0769H94.9888ZM127.09 11.0535H120.993V29.0769H116.322V11.0535H110.225V6.9231H127.09V11.0535ZM137.18 11.0535V6.9231H153V10.3175L142.501 24.9616H152.937V29.0769H136.594V25.6975L147.109 11.0535H137.18Z" fill="white"/>
<path fill-rule="evenodd" clip-rule="evenodd" d="M15.6139 12.6545L22.656 4.32303C23.0145 3.89646 23.1005 3.31266 22.8702 2.79829C22.6427 2.28569 22.1416 1.9754 21.5961 1.9754H11.6405C11.1152 1.9754 10.6326 2.27679 10.3913 2.75616L2.0798 19.3497C1.85639 19.797 1.87429 20.3808 2.12887 20.8122C2.38402 21.2411 2.83717 21.5538 3.3267 21.5538H9.68334L6.29156 32.205C6.09759 32.8677 6.39085 33.5583 6.99063 33.8763C7.19614 33.9848 7.41492 34.0246 7.63602 34.0246C8.05742 34.0246 8.46786 33.8252 8.74264 33.4633L22.7033 15.0626C23.0324 14.6266 23.0913 13.9965 22.8569 13.5029C22.6219 13.0069 22.133 12.6545 21.5961 12.6545H15.6139Z" fill="url(#paint0_radial)"/>
<path fill-rule="evenodd" clip-rule="evenodd" d="M23.9273 12.9651C23.493 12.0484 22.5907 11.4291 21.5962 11.4291H18.2282L23.555 5.1271C24.2216 4.3339 24.3779 3.23623 23.9522 2.28559C23.5326 1.33992 22.6085 0.75 21.5962 0.75H11.6405C10.6703 0.75 9.77958 1.30654 9.33353 2.19269L1.02083 18.7884C0.607342 19.6164 0.641266 20.653 1.11059 21.4482C1.58592 22.2473 2.41892 22.7792 3.32662 22.7792H8.03962L5.15504 31.8375L5.1509 31.8517C4.79108 33.0811 5.33577 34.3775 6.44488 34.9655C6.81918 35.1633 7.2177 35.25 7.63598 35.25C8.43037 35.25 9.18469 34.8718 9.68137 34.2177L23.6424 15.8166C24.2517 15.0092 24.3613 13.8792 23.9273 12.9651ZM22.6561 4.32303L15.6139 12.6545H21.5962C22.1331 12.6545 22.622 13.0069 22.857 13.5029C23.0913 13.9965 23.0325 14.6266 22.7034 15.0626L8.74261 33.4633C8.46783 33.8252 8.05739 34.0246 7.63598 34.0246C7.41488 34.0246 7.19609 33.9848 6.99059 33.8763C6.3908 33.5583 6.09754 32.8677 6.29151 32.205L9.68332 21.5538H3.32662C2.8371 21.5538 2.38394 21.2411 2.12878 20.8122C1.8742 20.3808 1.85631 19.797 2.07971 19.3497L10.3913 2.75616C10.6326 2.27679 11.1152 1.9754 11.6405 1.9754H21.5962C22.1417 1.9754 22.6428 2.28569 22.8702 2.79829C23.1006 3.31266 23.0146 3.89646 22.6561 4.32303Z" fill="white"/>
</g>
<defs>
<radialGradient id="paint0_radial" cx="0" cy="0" r="1" gradientUnits="userSpaceOnUse" gradientTransform="translate(16.3207 1.9754) rotate(90) scale(32.7951 21.5651)">
<stop stop-color="#F01E1E"/>
<stop offset="0.54416" stop-color="#82010B"/>
<stop offset="1" stop-color="#600616"/>
</radialGradient>
<clipPath id="clip0">
<path d="M0 0H153V36H0V0Z" fill="white"/>
</clipPath>
</defs>
</svg>
